# xmcd CD database file
#
# Track frame offsets:
#	150
#	14202
#	27717
#	41670
#	53705
#	67597
#	83660
#	95561
#	107602
#	122747
#	134888
#	146908
#	159224
#	169765
#	182829
#	195521
#	205979
#	217870
#	229439
#	246874
#	259646
#	271079
#
# Disc length: 3760 seconds
#
# Revision: 0
# Processed by: cddbd v1.5.2PL0 Copyright (c) Steve Scherf et al.
# Submitted via: CDex 1.70beta2
#
DISCID=400eae16
DTITLE=Carlene Carter - Musical shapes and blue nun
DYEAR=1900
DGENRE=Country
TTITLE0=Cry
TTITLE1=Madness
TTITLE2=Baby ride easy
TTITLE3=Bandit of love
TTITLE4=I'm so cool
TTITLE5=Appalacian eyes
TTITLE6=Ring of fire
TTITLE7=To bad about Sandy
TTITLE8=That very first kiss
TTITLE9=Foggy mountain top
TTITLE10=To drunk (To remember)
TTITLE11=To proud
TTITLE12=On how happy
TTITLE13=Love is a 4 letter verb
TTITLE14=That boy
TTITLE15=300 pound of hongry
TTITLE16=Tougher stuff
TTITLE17=I need a bit
TTITLE18=Rockababy
TTITLE19=My and my
TTITLE20=Do me lover
TTITLE21=To many teardrops
EXTD=
EXTT0=
EXTT1=
EXTT2=
EXTT3=
EXTT4=
EXTT5=
EXTT6=
EXTT7=
EXTT8=
EXTT9=
EXTT10=
EXTT11=
EXTT12=
EXTT13=
EXTT14=
EXTT15=
EXTT16=
EXTT17=
EXTT18=
EXTT19=
EXTT20=
EXTT21=
PLAYORDER=
